<svg version="1.1" xmlns="http://www.w3.org/2000/svg" viewBox="117.58 120.67 464.98 318.7">
 <path d="m557.16 281.61c-3.8828-3.6992-8.5117-6.5273-13.574-8.2891 14.184-20.078 21.512-44.191 20.898-68.766 0.097656-15.422-2.4844-30.738-7.6406-45.273-0.074219-0.23438-0.16406-0.46875-0.26562-0.69141-3.5469-10.383-9.3867-19.832-17.094-27.645-6.7344-6.8555-16.039-10.57-25.648-10.234-130.14 8.8047-302.4 0-304.06 0h0.003906c-1.1328-0.027344-2.2578 0.16406-3.3164 0.55859-26.699 2.4648-47.176 37.992-47.176 83.352-1.3008 25.875 7.1328 51.301 23.633 71.277-4.6562-2.6289-9.8867-4.082-15.23-4.2344-28.09 0-50.086 36.824-50.086 83.844s21.953 83.777 50.02 83.844h0.44922c12.902-0.60547 24.328-1.457 34.184-2.2383l-0.003906-0.003907c11.879-1.5898 23.902-1.8516 35.84-0.78516h0.24609c3.9883 1.8438 8.3086 2.8516 12.699 2.957 0.30859 0.023438 0.61328 0.023438 0.92188 0 73.863-5.7148 148.04-6.2969 221.98-1.7461 23.453 0.94141 43.566 1.7461 58.352 1.793h0.003907c9.9023-0.22656 19.289-4.4531 26.027-11.715 16.738-20.191 25.328-45.91 24.078-72.105 1.5156-26.98-7.5391-53.484-25.242-73.898zm-42.246-144.14c4.9609-0.042969 9.707 2.0273 13.059 5.6914 2.8789 2.8945 5.3594 6.1641 7.3672 9.7188-19.086-0.49219-44.219-0.29297-69.754 0.64844l0.003907 0.003906c-4.6406 0.085938-8.332 3.9141-8.2461 8.5547 0.085937 4.6406 3.918 8.332 8.5586 8.2422h0.3125c29.121-1.0742 57.344-1.1875 76.473-0.35938v0.003906c3.3398 11.223 5.0234 22.875 4.9961 34.586 1.5664 25.363-8.0977 50.137-26.434 67.734-75.867 4.4805-187.69 2.7773-269.85-0.60547l-0.15625 0.003906h-0.20312c-0.67188 0-1.2773 0.29297-1.9492 0.33594h0.003906c-0.37109 0.023437-0.73828 0.082031-1.0977 0.17578-4.2656 0.4375-8.4062 1.7031-12.188 3.7188 8.9805-9.9102 15.379-21.883 18.637-34.852 16.516 1.9414 33.121 2.9961 49.75 3.1562 12.719 0.51953 25.438-0.99219 37.676-4.4805 3.9297-1.875 5.7734-6.4375 4.2539-10.516-1.5195-4.0781-5.9023-6.3164-10.098-5.1641-25.836 4.3242-52.191 4.5117-78.086 0.5625 0.96484-6.5898 1.4648-13.234 1.5-19.895 0.79688-23.418-5.8789-46.484-19.062-65.855 56.156 2.0156 176.96 5.1992 274.54-1.4102zm-230.59 218.04c0 39.289-17.336 66.664-32.996 67l-0.40234-0.003907c-15.68-0.13281-33.176-27.598-33.176-67.02 0-39.426 17.539-67.02 33.266-67.02 15.77 0.042969 33.309 27.551 33.309 67.043zm-108.24-150.89c0-39.512 17.539-67.043 33.266-67.043 15.723 0 33.285 27.527 33.285 67.043 0 39.512-17.539 67.043-33.285 67.043-15.75 0-33.266-27.508-33.266-67.043zm33.266 83.844c5.3438-0.14844 10.57-1.5938 15.23-4.2109-6.6094 6.9883-11.785 15.207-15.23 24.191-3.4297-8.9922-8.6094-17.215-15.234-24.191 4.6602 2.6172 9.8906 4.0625 15.234 4.2109zm-74.953 67.043c0-39.512 17.539-67.043 33.285-67.043s33.266 27.531 33.266 67.043-17.473 66.953-33.195 67.043c-15.836-0.046876-33.355-27.555-33.355-67.043zm66.617 64.961-1.7461 0.11328v-0.003907c4.1172-5.5156 7.5039-11.539 10.082-17.918 2.3867 5.9102 5.4609 11.516 9.1602 16.707-5.1523 0.17969-10.84 0.5625-17.492 1.0547zm345.45-4.6797v-0.003907c-3.5977 4.0352-8.6641 6.457-14.066 6.7188-14.648 0-34.539-0.85156-57.746-1.7695-54.59-2.2383-126.31-5.0195-191.5-0.89453 12.398-19.129 18.652-41.594 17.918-64.379 0.80469-23.438-5.8984-46.516-19.129-65.879 60.48 2.0156 171.85 4.4805 250.88-1.1875 4.8516-0.097657 9.5117 1.8945 12.793 5.4688 14.039 17.355 21.129 39.309 19.891 61.598-0.070313 4.9844-0.4375 9.957-1.0977 14.898-11.938-1.1211-34.719-3.3359-49.93-5.1758-31.211 1.1094-62.238 5.2422-92.648 12.344-4.2188 0.88281-7.082 4.8203-6.625 9.1094 0.45312 4.2852 4.082 7.5312 8.3945 7.5117 0.59766-0.003906 1.1914-0.070313 1.7695-0.20312 28.586-6.8047 57.758-10.848 87.113-12.074 14.648 1.7695 36.242 3.875 48.652 5.0625-2.4297 10.668-7.4727 20.566-14.672 28.805zm-96.879-79.969v-0.003907c0.25781-2.2148 1.3906-4.2383 3.1445-5.6172 1.75-1.3789 3.9844-2 6.1953-1.7305 22.777 3.1719 45.879 3.2539 68.68 0.24609 4.4727-1.2344 9.1016 1.3867 10.336 5.8594 1.2383 4.4727-1.3828 9.1016-5.8555 10.336-10.105 2.25-20.449 3.2422-30.801 2.957-14.812-0.11719-29.609-1.0234-44.328-2.7109-2.2266-0.25781-4.2578-1.3945-5.6406-3.1562-1.3867-1.7617-2.0078-4.0039-1.7305-6.2266zm-32.68 28.09c-7.6836-0.73828-55.238-2.3984-85.367-1.3672v-0.003906c-4.6406 0.16016-8.5312-3.4688-8.6914-8.1094-0.16016-4.6367 3.4688-8.5273 8.1094-8.6914 30.801-0.98438 79.609 0.67187 87.539 1.4336 4.4336 0.46094 7.7344 4.2969 7.5273 8.75-0.20703 4.4531-3.8555 7.9648-8.3125 8.0078zm-100.94-167.24c-0.13672-4.6406 3.4961-8.5195 8.1328-8.6914 12.992 0.070312 25.949 1.3984 38.684 3.9648 17.891 3.5859 36.133 5.0898 54.367 4.4805l19.242-1.3438c23.297-1.6133 38.684-2.6875 61.309-2.7539 4.6367 0 8.3984 3.7578 8.3984 8.3984 0 4.6406-3.7617 8.3984-8.3984 8.3984-22.043 0-36.398 1.0547-60.168 2.7344l-19.332 1.3203c-3.5391 0.22266-7.0547 0.33594-10.504 0.33594-16-0.34766-31.941-2.0117-47.668-4.9727-11.656-2.3828-23.516-3.6367-35.414-3.7383-4.6289 0.125-8.4883-3.5078-8.6484-8.1328zm-112-17.922v0.003906c-3.4219-3.043-3.8086-8.25-0.87109-11.762 2.9219-3.4961 8.1133-3.9961 11.648-1.1211 13.051 13.895 18.121 33.488 13.438 51.969-0.57812 4.1445-4.125 7.2305-8.3086 7.2344-0.39453 0.035156-0.79297 0.035156-1.1875 0-4.5859-0.64844-7.7852-4.8867-7.1445-9.4727 3.5312-12.785 0.67969-26.492-7.6602-36.805zm48.945 136.84v0.003906c7.2109 6.3477 12.406 14.66 14.953 23.922 2.5469 9.2578 2.332 19.062-0.61719 28.203-0.69531 4.0078-4.1719 6.9375-8.2422 6.9453-0.49609 0-0.99219-0.046874-1.4805-0.13672-4.5312-0.83984-7.5352-5.1836-6.7188-9.7227 4.6367-26.23-6.7188-34.945-7.2344-35.324-3.6992-2.6992-4.582-7.8477-1.9922-11.625 2.5352-3.6484 7.5117-4.6328 11.242-2.2188zm-88.277 84.879c-19.332-7.5273-16.777-45.449-15.547-56.895v-0.003907c0.23828-2.2148 1.3477-4.2461 3.082-5.6445 1.7344-1.3984 3.9531-2.0508 6.168-1.8125 4.6172 0.49219 7.957 4.6367 7.4609 9.25-2.1289 19.957 0.94141 37.902 4.9297 39.445 3.75 1.4766 5.9258 5.4062 5.1797 9.3711-0.74219 3.9609-4.1953 6.8359-8.2266 6.8477-1.043 0-2.0742-0.1875-3.0469-0.55859zm337.23-152.7c-1.125 3.4648-4.3555 5.8047-7.9961 5.8008-0.875 0-1.7422-0.13672-2.5742-0.40234-17.227-4.1055-35.047-5.0859-52.621-2.8906-4.5977 0.28516-8.5781-3.1562-8.957-7.75-0.33594-4.6055 3.1211-8.6133 7.7266-8.957 19.746-2.4688 39.777-1.2305 59.07 3.6484 4.3789 1.4531 6.7656 6.1602 5.3516 10.551z"/>
</svg>