<svg version="1.1" xmlns="http://www.w3.org/2000/svg" xmlns:xlink="http://www.w3.org/1999/xlink" viewBox="46.67 100.75 544.13 447.27">
 <defs>
  <symbol id="w" overflow="visible">
   <path d="m18.766-1.125c-0.96875 0.5-1.9805 0.875-3.0312 1.125-1.043 0.25781-2.1367 0.39062-3.2812 0.39062-3.3984 0-6.0898-0.94531-8.0781-2.8438-1.9922-1.9062-2.9844-4.4844-2.9844-7.7344 0-3.2578 0.99219-5.8359 2.9844-7.7344 1.9883-1.9062 4.6797-2.8594 8.0781-2.8594 1.1445 0 2.2383 0.13281 3.2812 0.39062 1.0508 0.25 2.0625 0.625 3.0312 1.125v4.2188c-0.98047-0.65625-1.9453-1.1406-2.8906-1.4531-0.94922-0.3125-1.9492-0.46875-3-0.46875-1.875 0-3.3516 0.60547-4.4219 1.8125-1.0742 1.1992-1.6094 2.8555-1.6094 4.9688 0 2.1055 0.53516 3.7617 1.6094 4.9688 1.0703 1.1992 2.5469 1.7969 4.4219 1.7969 1.0508 0 2.0508-0.14844 3-0.45312 0.94531-0.3125 1.9102-0.80078 2.8906-1.4688z"/>
  </symbol>
  <symbol id="d" overflow="visible">
   <path d="m13.734-11.141c-0.4375-0.19531-0.87109-0.34375-1.2969-0.4375-0.41797-0.10156-0.83984-0.15625-1.2656-0.15625-1.2617 0-2.2305 0.40625-2.9062 1.2188-0.67969 0.80469-1.0156 1.9531-1.0156 3.4531v7.0625h-4.8906v-15.312h4.8906v2.5156c0.625-1 1.3438-1.7266 2.1562-2.1875 0.82031-0.46875 1.8008-0.70312 2.9375-0.70312 0.16406 0 0.34375 0.011719 0.53125 0.03125 0.19531 0.011719 0.47656 0.039062 0.84375 0.078125z"/>
  </symbol>
  <symbol id="b" overflow="visible">
   <path d="m17.641-7.7031v1.4062h-11.453c0.125 1.1484 0.53906 2.0078 1.25 2.5781 0.70703 0.57422 1.7031 0.85938 2.9844 0.85938 1.0312 0 2.082-0.14844 3.1562-0.45312 1.082-0.3125 2.1914-0.77344 3.3281-1.3906v3.7656c-1.1562 0.4375-2.3125 0.76562-3.4688 0.98438-1.1562 0.22656-2.3125 0.34375-3.4688 0.34375-2.7734 0-4.9297-0.70312-6.4688-2.1094-1.5312-1.4062-2.2969-3.3789-2.2969-5.9219 0-2.5 0.75391-4.4609 2.2656-5.8906 1.5078-1.4375 3.582-2.1562 6.2188-2.1562 2.4062 0 4.332 0.73047 5.7812 2.1875 1.4453 1.4492 2.1719 3.3828 2.1719 5.7969zm-5.0312-1.625c0-0.92578-0.27344-1.6719-0.8125-2.2344-0.54297-0.57031-1.25-0.85938-2.125-0.85938-0.94922 0-1.7188 0.26562-2.3125 0.79688s-0.96484 1.2969-1.1094 2.2969z"/>
  </symbol>
  <symbol id="j" overflow="visible">
   <path d="m9.2188-6.8906c-1.0234 0-1.793 0.17188-2.3125 0.51562-0.51172 0.34375-0.76562 0.85547-0.76562 1.5312 0 0.625 0.20703 1.1172 0.625 1.4688 0.41406 0.34375 0.98828 0.51562 1.7188 0.51562 0.92578 0 1.7031-0.32812 2.3281-0.98438 0.63281-0.66406 0.95312-1.4922 0.95312-2.4844v-0.5625zm7.4688-1.8438v8.7344h-4.9219v-2.2656c-0.65625 0.92969-1.3984 1.6055-2.2188 2.0312-0.82422 0.41406-1.8242 0.625-3 0.625-1.5859 0-2.8711-0.45703-3.8594-1.375-0.99219-0.92578-1.4844-2.1289-1.4844-3.6094 0-1.7891 0.61328-3.1016 1.8438-3.9375 1.2383-0.84375 3.1797-1.2656 5.8281-1.2656h2.8906v-0.39062c0-0.76953-0.30859-1.332-0.92188-1.6875-0.61719-0.36328-1.5703-0.54688-2.8594-0.54688-1.0547 0-2.0312 0.10547-2.9375 0.3125-0.89844 0.21094-1.7305 0.52344-2.5 0.9375v-3.7344c1.0391-0.25 2.0859-0.44141 3.1406-0.57812 1.0625-0.13281 2.125-0.20312 3.1875-0.20312 2.7578 0 4.75 0.54688 5.9688 1.6406 1.2266 1.0859 1.8438 2.8555 1.8438 5.3125z"/>
  </symbol>
  <symbol id="a" overflow="visible">
   <path d="m7.7031-19.656v4.3438h5.0469v3.5h-5.0469v6.5c0 0.71094 0.14062 1.1875 0.42188 1.4375s0.83594 0.375 1.6719 0.375h2.5156v3.5h-4.1875c-1.9375 0-3.3125-0.39844-4.125-1.2031-0.80469-0.8125-1.2031-2.1797-1.2031-4.1094v-6.5h-2.4219v-3.5h2.4219v-4.3438z"/>
  </symbol>
  <symbol id="e" overflow="visible">
   <path d="m12.766-13.078v-8.2031h4.9219v21.281h-4.9219v-2.2188c-0.66797 0.90625-1.4062 1.5703-2.2188 1.9844s-1.7578 0.625-2.8281 0.625c-1.8867 0-3.4336-0.75-4.6406-2.25-1.2109-1.5-1.8125-3.4258-1.8125-5.7812 0-2.3633 0.60156-4.2969 1.8125-5.7969 1.207-1.5 2.7539-2.25 4.6406-2.25 1.0625 0 2 0.21484 2.8125 0.64062 0.82031 0.42969 1.5664 1.0859 2.2344 1.9688zm-3.2188 9.9219c1.0391 0 1.8359-0.37891 2.3906-1.1406 0.55078-0.76953 0.82812-1.8828 0.82812-3.3438 0-1.457-0.27734-2.5664-0.82812-3.3281-0.55469-0.76953-1.3516-1.1562-2.3906-1.1562-1.043 0-1.8398 0.38672-2.3906 1.1562-0.55469 0.76172-0.82812 1.8711-0.82812 3.3281 0 1.4609 0.27344 2.5742 0.82812 3.3438 0.55078 0.76172 1.3477 1.1406 2.3906 1.1406z"/>
  </symbol>
  <symbol id="i" overflow="visible">
   <path d="m10.5-3.1562c1.0508 0 1.8516-0.37891 2.4062-1.1406 0.55078-0.76953 0.82812-1.8828 0.82812-3.3438 0-1.457-0.27734-2.5664-0.82812-3.3281-0.55469-0.76953-1.3555-1.1562-2.4062-1.1562-1.0547 0-1.8594 0.38672-2.4219 1.1562-0.55469 0.77344-0.82812 1.8828-0.82812 3.3281 0 1.4492 0.27344 2.5586 0.82812 3.3281 0.5625 0.77344 1.3672 1.1562 2.4219 1.1562zm-3.25-9.9219c0.67578-0.88281 1.4219-1.5391 2.2344-1.9688 0.82031-0.42578 1.7656-0.64062 2.8281-0.64062 1.8945 0 3.4453 0.75 4.6562 2.25 1.207 1.5 1.8125 3.4336 1.8125 5.7969 0 2.3555-0.60547 4.2812-1.8125 5.7812-1.2109 1.5-2.7617 2.25-4.6562 2.25-1.0625 0-2.0078-0.21094-2.8281-0.625-0.8125-0.42578-1.5586-1.0859-2.2344-1.9844v2.2188h-4.8906v-21.281h4.8906z"/>
  </symbol>
  <symbol id="h" overflow="visible">
   <path d="m0.34375-15.312h4.8906l4.125 10.391 3.5-10.391h4.8906l-6.4375 16.766c-0.64844 1.6953-1.4023 2.8828-2.2656 3.5625-0.86719 0.6875-2 1.0312-3.4062 1.0312h-2.8438v-3.2188h1.5312c0.83203 0 1.4375-0.13672 1.8125-0.40625 0.38281-0.26172 0.67969-0.73047 0.89062-1.4062l0.14062-0.42188z"/>
  </symbol>
  <symbol id="g" overflow="visible">
   <path d="m14.953-3.7188h-8.2188l-1.3125 3.7188h-5.2812l7.5625-20.406h6.2656l7.5625 20.406h-5.2812zm-6.9062-3.7812h5.5781l-2.7812-8.125z"/>
  </symbol>
  <symbol id="v" overflow="visible">
   <path d="m2.5781-20.406h14.203v3.9688h-8.9531v3.7969h8.4219v3.9844h-8.4219v8.6562h-5.25z"/>
  </symbol>
  <symbol id="u" overflow="visible">
   <path d="m-0.28125-20.406h5.7656l4.6406 7.2656 4.6562-7.2656h5.7656l-7.7812 11.812v8.5938h-5.2656v-8.5938z"/>
  </symbol>
  <symbol id="t" overflow="visible">
   <path d="m16.781-19.766v4.3125c-1.125-0.5-2.2266-0.875-3.2969-1.125-1.0625-0.25781-2.0703-0.39062-3.0156-0.39062-1.25 0-2.1797 0.17969-2.7812 0.53125-0.60547 0.34375-0.90625 0.88281-0.90625 1.6094 0 0.54297 0.20312 0.96875 0.60938 1.2812 0.40625 0.30469 1.1406 0.5625 2.2031 0.78125l2.25 0.45312c2.2695 0.44922 3.8789 1.1406 4.8281 2.0781 0.95703 0.92969 1.4375 2.2461 1.4375 3.9531 0 2.25-0.66797 3.9297-2 5.0312-1.3359 1.0938-3.3711 1.6406-6.1094 1.6406-1.3047 0-2.6055-0.125-3.9062-0.375-1.3047-0.23828-2.6055-0.59766-3.9062-1.0781v-4.4531c1.3008 0.69922 2.5625 1.2266 3.7812 1.5781 1.2188 0.34375 2.3906 0.51562 3.5156 0.51562 1.1562 0 2.0352-0.1875 2.6406-0.5625 0.61328-0.38281 0.92188-0.9375 0.92188-1.6562 0-0.63281-0.21094-1.125-0.625-1.4688-0.41797-0.34375-1.2461-0.65625-2.4844-0.9375l-2.0312-0.4375c-2.043-0.4375-3.5391-1.1328-4.4844-2.0938-0.9375-0.95703-1.4062-2.25-1.4062-3.875 0-2.0312 0.65625-3.5938 1.9688-4.6875s3.1953-1.6406 5.6562-1.6406c1.125 0 2.2734 0.085938 3.4531 0.25 1.1875 0.16797 2.4141 0.42188 3.6875 0.76562z"/>
  </symbol>
  <symbol id="f" overflow="visible">
   <path d="m2.1875-5.9688v-9.3438h4.9219v1.5312c0 0.83594-0.007813 1.875-0.015625 3.125-0.011719 1.25-0.015625 2.0859-0.015625 2.5 0 1.2422 0.03125 2.1328 0.09375 2.6719 0.070313 0.54297 0.17969 0.93359 0.32812 1.1719 0.20703 0.32422 0.47266 0.57422 0.79688 0.75 0.32031 0.16797 0.69141 0.25 1.1094 0.25 1.0195 0 1.8203-0.39062 2.4062-1.1719 0.58203-0.78125 0.875-1.8672 0.875-3.2656v-7.5625h4.8906v15.312h-4.8906v-2.2188c-0.74219 0.89844-1.5234 1.5586-2.3438 1.9844-0.82422 0.41406-1.7344 0.625-2.7344 0.625-1.7617 0-3.1055-0.53906-4.0312-1.625-0.92969-1.082-1.3906-2.6602-1.3906-4.7344z"/>
  </symbol>
  <symbol id="s" overflow="visible">
   <path d="m2.3594-15.312h4.8906v15.312h-4.8906zm0-5.9688h4.8906v4h-4.8906z"/>
  </symbol>
  <symbol id="c" overflow="visible">
   <path d="m9.6406-12.188c-1.0859 0-1.9141 0.39062-2.4844 1.1719-0.57422 0.78125-0.85938 1.9062-0.85938 3.375s0.28516 2.5938 0.85938 3.375c0.57031 0.77344 1.3984 1.1562 2.4844 1.1562 1.0625 0 1.875-0.38281 2.4375-1.1562 0.57031-0.78125 0.85938-1.9062 0.85938-3.375s-0.28906-2.5938-0.85938-3.375c-0.5625-0.78125-1.375-1.1719-2.4375-1.1719zm0-3.5c2.6328 0 4.6914 0.71484 6.1719 2.1406 1.4766 1.418 2.2188 3.3867 2.2188 5.9062 0 2.5117-0.74219 4.4805-2.2188 5.9062-1.4805 1.418-3.5391 2.125-6.1719 2.125-2.6484 0-4.7148-0.70703-6.2031-2.125-1.4922-1.4258-2.2344-3.3945-2.2344-5.9062 0-2.5195 0.74219-4.4883 2.2344-5.9062 1.4883-1.4258 3.5547-2.1406 6.2031-2.1406z"/>
  </symbol>
  <symbol id="r" overflow="visible">
   <path d="m12.422-21.281v3.2188h-2.7031c-0.6875 0-1.1719 0.125-1.4531 0.375-0.27344 0.25-0.40625 0.6875-0.40625 1.3125v1.0625h4.1875v3.5h-4.1875v11.812h-4.8906v-11.812h-2.4375v-3.5h2.4375v-1.0625c0-1.6641 0.46094-2.8984 1.3906-3.7031 0.92578-0.80078 2.3672-1.2031 4.3281-1.2031z"/>
  </symbol>
  <symbol id="q" overflow="visible">
   <path d="m16.547-12.766c0.61328-0.94531 1.3477-1.6719 2.2031-2.1719 0.85156-0.5 1.7891-0.75 2.8125-0.75 1.7578 0 3.0977 0.54688 4.0156 1.6406 0.92578 1.0859 1.3906 2.6562 1.3906 4.7188v9.3281h-4.9219v-7.9844-0.35938c0.007813-0.13281 0.015625-0.32031 0.015625-0.5625 0-1.082-0.16406-1.8633-0.48438-2.3438-0.3125-0.48828-0.82422-0.73438-1.5312-0.73438-0.92969 0-1.6484 0.38672-2.1562 1.1562-0.51172 0.76172-0.77344 1.8672-0.78125 3.3125v7.5156h-4.9219v-7.9844c0-1.6953-0.14844-2.7852-0.4375-3.2656-0.29297-0.48828-0.8125-0.73438-1.5625-0.73438-0.9375 0-1.6641 0.38672-2.1719 1.1562-0.51172 0.76172-0.76562 1.8594-0.76562 3.2969v7.5312h-4.9219v-15.312h4.9219v2.2344c0.60156-0.86328 1.2891-1.5156 2.0625-1.9531 0.78125-0.4375 1.6406-0.65625 2.5781-0.65625 1.0625 0 2 0.25781 2.8125 0.76562 0.8125 0.51172 1.4258 1.2305 1.8438 2.1562z"/>
  </symbol>
  <symbol id="p" overflow="visible">
   <path d="m17.75-9.3281v9.3281h-4.9219v-7.1094c0-1.3438-0.03125-2.2656-0.09375-2.7656s-0.16797-0.86719-0.3125-1.1094c-0.1875-0.3125-0.44922-0.55469-0.78125-0.73438-0.32422-0.17578-0.69531-0.26562-1.1094-0.26562-1.0234 0-1.8242 0.39844-2.4062 1.1875-0.58594 0.78125-0.875 1.8711-0.875 3.2656v7.5312h-4.8906v-21.281h4.8906v8.2031c0.73828-0.88281 1.5195-1.5391 2.3438-1.9688 0.83203-0.42578 1.75-0.64062 2.75-0.64062 1.7695 0 3.1133 0.54688 4.0312 1.6406 0.91406 1.0859 1.375 2.6562 1.375 4.7188z"/>
  </symbol>
  <symbol id="o" overflow="visible">
   <path d="m2.5781-20.406h5.875l7.4219 14v-14h4.9844v20.406h-5.875l-7.4219-14v14h-4.9844z"/>
  </symbol>
  <symbol id="n" overflow="visible">
   <path d="m17.75-9.3281v9.3281h-4.9219v-7.1406c0-1.3203-0.03125-2.2344-0.09375-2.7344s-0.16797-0.86719-0.3125-1.1094c-0.1875-0.3125-0.44922-0.55469-0.78125-0.73438-0.32422-0.17578-0.69531-0.26562-1.1094-0.26562-1.0234 0-1.8242 0.39844-2.4062 1.1875-0.58594 0.78125-0.875 1.8711-0.875 3.2656v7.5312h-4.8906v-15.312h4.8906v2.2344c0.73828-0.88281 1.5195-1.5391 2.3438-1.9688 0.83203-0.42578 1.75-0.64062 2.75-0.64062 1.7695 0 3.1133 0.54688 4.0312 1.6406 0.91406 1.0859 1.375 2.6562 1.375 4.7188z"/>
  </symbol>
  <symbol id="m" overflow="visible">
   <path d="m2.5781-20.406h8.7344c2.5938 0 4.582 0.57812 5.9688 1.7344 1.3945 1.1484 2.0938 2.7891 2.0938 4.9219 0 2.1367-0.69922 3.7812-2.0938 4.9375-1.3867 1.1562-3.375 1.7344-5.9688 1.7344h-3.4844v7.0781h-5.25zm5.25 3.8125v5.7031h2.9219c1.0195 0 1.8047-0.25 2.3594-0.75 0.5625-0.5 0.84375-1.2031 0.84375-2.1094 0-0.91406-0.28125-1.6172-0.84375-2.1094-0.55469-0.48828-1.3398-0.73438-2.3594-0.73438z"/>
  </symbol>
  <symbol id="l" overflow="visible">
   <path d="m2.3594-15.312h4.8906v15.031c0 2.0508-0.49609 3.6172-1.4844 4.7031-0.98047 1.082-2.4062 1.625-4.2812 1.625h-2.4219v-3.2188h0.85938c0.92578 0 1.5625-0.21094 1.9062-0.625 0.35156-0.41797 0.53125-1.2461 0.53125-2.4844zm0-5.9688h4.8906v4h-4.8906z"/>
  </symbol>
  <symbol id="k" overflow="visible">
   <path d="m14.719-14.828v3.9844c-0.65625-0.45703-1.3242-0.79688-2-1.0156-0.66797-0.21875-1.3594-0.32812-2.0781-0.32812-1.3672 0-2.4336 0.40234-3.2031 1.2031-0.76172 0.79297-1.1406 1.9062-1.1406 3.3438 0 1.4297 0.37891 2.543 1.1406 3.3438 0.76953 0.79297 1.8359 1.1875 3.2031 1.1875 0.75781 0 1.4844-0.10938 2.1719-0.32812 0.6875-0.22656 1.3203-0.56641 1.9062-1.0156v4c-0.76172 0.28125-1.5391 0.48828-2.3281 0.625-0.78125 0.14453-1.5742 0.21875-2.375 0.21875-2.7617 0-4.9219-0.70703-6.4844-2.125-1.5547-1.4141-2.3281-3.3828-2.3281-5.9062 0-2.5312 0.77344-4.5039 2.3281-5.9219 1.5625-1.4141 3.7227-2.125 6.4844-2.125 0.80078 0 1.5938 0.074219 2.375 0.21875 0.78125 0.13672 1.5547 0.35156 2.3281 0.64062z"/>
  </symbol>
 </defs>
 <g>
  <path d="m357.64 100.8c-10.973 0.09375-22.207 3.9766-35.488 10.488-10.68-5.1016-20.859-8.0352-31.117-7.2891-9.9805 0.72656-19.852 4.8086-30.242 12.09-4.1602-1.5625-9.0898-0.83594-14.684 0.71094-4.9336-6.9141-9.8906-11.949-16.434-12.977-6.4336-1.0078-12.406 2.1484-19.055 6.7539-5.3125-4.3711-11.062-7.2891-17.133-7.2891-6.6602 0-12.805 3.3516-18.531 8.5312-7.8672-0.054687-15.883-0.27344-22.551 3.7305-8.6289 7.1367-7.2734 15.973-3.6719 24.711-3.2773 8.9023-2.6992 17.969 4.5469 24.352-11.711 9.3906-24.656 9.5-36.535 15.289-5.8477 2.6055-8.8438 7.8789-6.9922 12.441 6.4727 11.09 26.82 3.3633 34.613-1.4219 6.6562-4.1797 12.707-9.418 18.707-14.043-8.4102 20.766-11.695 41.738-14.336 59.371-5.0586 41.164 16.23 74.633 45.801 83.547 3.0234 15.246 13.418 28.895 28.32 35.02 3.4375 10.941 9.7891 19.375 19.23 22.574 5.5039 1.8672 11.762 2.0469 18.531 0.89062 0.28516 7.1211 3.3125 13.656 5.5938 20.621 0.085937 10.062 0.22656 21.238-0.69922 30.754-6.8438 6.168-7.1914 18.336-0.69922 24.887s18.461 6.1172 24.473-0.89062c5.9258-4.7617 9.2148-11.215 10.488-17.598v-39.82c0.082031-2.293-0.62891-4.0977-1.0469-6.0469 4.0391 1.9414 8.3828 2.8828 12.41 3.7344-1.4062 12.098 0.80078 25.102-0.875 35.73-6.8438 6.168-7.1914 18.336-0.69922 24.887 6.4922 6.5508 18.461 6.1172 24.473-0.89062 5.9258-4.7617 9.2148-11.215 10.488-17.598v-40.355c16.695 10.641 37.105 9.7695 56.465 0.53906 3.5508 0.80469 7.0703 1.3555 10.664 1.6016 0.082031 10.414 0.23047 21.953-0.69922 31.82-6.8438 6.168-7.1914 18.336-0.69922 24.887 6.4922 6.5508 18.461 6.1172 24.473-0.89062 5.9258-4.7617 9.2148-11.215 10.488-17.598v-39.82c0.023437-2.2461-0.39453-4.4961-1.2227-6.5781 2.5703-1.7148 5.0898-3.6055 7.5156-5.8672 2.6094 4.1289 4.2383 7.957 4.8945 15.109 0.085937 10.062 0.22656 21.238-0.69922 30.754-6.8438 6.168-7.1914 18.336-0.69922 24.887 6.4922 6.5508 18.461 6.1172 24.473-0.89062 5.9258-4.7617 9.2148-11.215 10.488-17.598v-39.82c0.003906-1.8711-0.28906-3.7383-0.875-5.5117-1.2969-6.5977-3.8672-11.797-5.7695-17.602 4.1953 0.25391 8.0469-0.17969 11.539-1.6016 8.3281-3.3867 13-11.66 16.082-22.043 10.309-3.0859 18.215-7.7852 22.902-14.934 4.7266-7.207 6.0703-16.105 6.293-26.664 10.223-8.0547 17.738-15.645 21.504-25.598 1.8164-4.8008 2.7305-9.9883 2.9727-15.82 3.4883 7.4414 5.1758 15.359 7.5156 22.574 1.5938 3.7852 4.2695 7.7695 8.5664 9.9531 2.6523 1.3203 6.25 0.054687 7.5156-2.668 3.6328-7.3828 3.3945-16.387-0.52344-25.953-3.7695-9.2031-13.172-22.027-24.125-33.418 2.9648-19.91-3.0625-36.664-17.656-47.996 1.9258-11.152 0.77344-21.641-5.418-29.508-6.3281-8.043-17.094-12.258-30.418-12.977-8.293-13.402-17.184-22.719-28.32-25.953-10.363-3.0117-21.789 0.089843-34.266 6.7539-5.6094-11.812-12.434-20.766-22.203-23.82-10.5-3.2852-22.504 0.078126-35.836 7.6445-9.6523-5.7227-21.871-10.266-31.816-10.309zm0.17578 11.375c9.1055-0.078125 17.598 2.7812 28.496 9.957 1.7383 1.1797 4.1406 1.2539 5.9453 0.17969 13.328-8.1328 22.863-10.145 29.719-8 6.8555 2.1445 12.723 8.7891 18.008 22.219 1.1523 3.1562 5.4102 4.6328 8.2148 2.8438 13.328-8.1289 22.66-10.254 30.418-8 7.7617 2.2539 15.371 9.4609 23.426 23.109 0.95703 1.6836 2.8086 2.8008 4.7188 2.8438 12.867 0 20.711 3.793 25 9.2422 4.2891 5.4492 5.6523 13.277 3.1484 23.465-0.53516 2.2266 0.41016 4.7461 2.2734 6.043 15.113 10.246 19.73 23.914 14.512 45.152-0.15625 0.75781-0.15625 1.5508 0 2.3125 2.7305 16.66 2.418 26.879-0.52344 34.664-2.9453 7.7852-8.8633 14.094-19.754 22.398-1.4141 1.0625-2.2852 2.8359-2.2734 4.6211 0 10.902-1.3047 18.168-4.5469 23.109-3.2422 4.9453-8.7852 8.543-19.23 11.199-1.9258 0.50391-3.5234 2.1289-4.0195 4.0898-2.6094 10.617-5.9414 15.5-10.664 17.418-4.7227 1.9219-13.125 1.2031-26.574-4.2656-2.4219-0.96875-5.4531 0.054687-6.8164 2.3125-7.9102 13.406-16.832 20.961-26.047 24.707-9.2148 3.75-19.031 3.8711-29.371 1.2461-1.2695-0.34766-2.6602-0.22266-3.8477 0.35156-21.043 10.699-40.043 10.656-55.066-4.6211-1.6484-1.6797-4.3828-2.1289-6.4688-1.0664-9.8555 5.0078-19.312 4.9492-28.672 1.7773-9.3555-3.1719-18.445-9.6914-26.398-17.777-1.5547-1.5938-4.082-2.1055-6.1172-1.2461-13.328 5.4219-23.273 6.2734-29.719 4.0898-6.4453-2.1836-10.605-7.0547-13.113-17.242-0.43359-1.875-1.875-3.4766-3.6719-4.0898-11.094-3.7578-19.211-12.594-22.375-23.109 23.598 0.20312 40.957-13.266 51.047-27.199 11.309-16.098 17.355-37.352 14.336-58.84-3.5312-25.129-7.1172-41.109-10.664-54.039 3.9375 3.1289 7.9453 6.1953 12.238 8.8867 8.7227 5.4766 19.355 9.0352 30.941 5.332 5.3477-2.9766 4.957-9.043 2.2734-12.266-5.0977-5.3086-13.168-6.9023-19.055-8.8867-8.5898-2.9141-18.238-7.0938-26.398-16.355 3.9414-1.9102 7.168-4.2695 9.2656-7.8203 1.8398-3.1172 2.1055-7.3672 0.875-10.844-0.85938-2.4219-2.7344-4.5742-4.5469-6.7539 1.6211-3.0977 1.2227-5.6289 1.2227-8.5312 8.8242-6.0664 16.422-9.0664 23.773-9.5977 8.4688-0.61328 17.281 1.8555 27.973 7.2891 1.5195 0.75 3.375 0.75 4.8945 0 10.84-4.5469 22.629-10.074 33.215-10.305zm-164.33 2.4883c3.7305 0 8 1.7383 12.938 6.7539 1.8672 1.8438 5.0586 2.082 7.168 0.53125 7.6523-5.7383 12.148-7.3047 14.512-6.9336 2.3633 0.37109 5.8516 3.0586 11.188 11.199 1.3164 2.0312 4.0039 3.0156 6.293 2.3125 7.457-2.5273 11.367-1.6094 11.539-1.5977-0.039063 1.8281-0.97656 3.6289-1.3984 4.9766-1.0469 2.1211-0.60156 4.9023 1.0508 6.5781 1.8906 1.4414 4.0703 4.875 4.0195 6.5781-0.25391 1.3203-5.0742 4.0312-13.113 6.7539-0.79297 0.30078-1.5156 0.79297-2.0977 1.4219-4.9336 5.0195-9.4062 7.1055-13.637 7.6445-4.2266 0.53125-8.5352-0.51562-13.461-3.0234-1.793-0.95312-4.1016-0.8125-5.7695 0.35156-7.9141 5.3633-13.73 7.6445-19.23 7.6445s-11.316-2.2812-19.23-7.6445c-0.93359-0.60156-2.043-0.91797-3.1484-0.88672-7.7695 0-11.434-1.6016-12.41-2.8438-0.98047-1.2461-1.5117-4.6289 1.0508-12.445 0.42969-1.3945 0.30078-2.9609-0.34766-4.2656-3.2148-4.9414-3.4258-9.9609-1.2227-12.441 2.4453-1.4688 10.18-2.1328 18.531-2.1328 1.5 0 2.9883-0.66797 4.0195-1.7773 3.7227-3.9453 8.5039-6.7969 12.762-6.75zm51.57 52.973c5.2773 16.125 10.484 32.676 15.734 70.039 2.5742 18.332-2.7422 36.898-12.41 50.664-8.4219 11.992-20.012 20.297-32.516 22.219v-14.754c4.9375-1.375 9.5664-4.707 14.859-9.2422 1.9844-1.5312 2.7461-4.5 1.7422-6.8203-2.6836-3.9141-5.6602-3.7109-8.9102-1.8906-6.3984 5.4844-9.7578 7.25-12.41 7.2891-2.6562 0.054687-6.9258-1.8945-14.512-7.1094-2.4258-1.6758-6.1328-0.95703-7.7812 1.5117-1.6484 2.4648-0.94141 6.2344 1.4844 7.9102 5.3945 3.7109 9.8516 6.5508 14.336 8v15.109c-27.398-3.4961-49.691-32.715-44.754-72.883 4.7969-34.133 9.25-50.516 17.309-64.883 5.4766 2.7109 10.805 4.4453 16.258 4.4453 7.6289 0 15.055-3.2422 22.902-8.1758 5.4336 2.3242 11.051 3.7734 16.957 3.0234 3.9688-0.50391 7.9102-2.0938 11.711-4.4453zm-59.961 18.133c-4.6328 0-8.3906 5.0938-8.3906 11.379 0 6.2812 3.7578 11.379 8.3906 11.379s8.3906-5.0938 8.3906-11.379c0-6.2812-3.7578-11.379-8.3906-11.379zm50.348 0c-4.6328 0-8.3906 5.0938-8.3906 11.379 0 6.2812 3.7578 11.379 8.3906 11.379 4.6328 0 8.3906-5.0938 8.3906-11.379 0-6.2812-3.7578-11.379-8.3906-11.379z"/>
  <use x="70" y="644" xlink:href="#w"/>
  <use x="90.550781" y="644" xlink:href="#d"/>
  <use x="104.359375" y="644" xlink:href="#b"/>
  <use x="123.347656" y="644" xlink:href="#j"/>
  <use x="142.242188" y="644" xlink:href="#a"/>
  <use x="155.628906" y="644" xlink:href="#b"/>
  <use x="174.617188" y="644" xlink:href="#e"/>
  <use x="204.410156" y="644" xlink:href="#i"/>
  <use x="224.453125" y="644" xlink:href="#h"/>
  <use x="252.453125" y="644" xlink:href="#g"/>
  <use x="274.121094" y="644" xlink:href="#v"/>
  <use x="293.25" y="644" xlink:href="#u"/>
  <use x="323.273438" y="644" xlink:href="#t"/>
  <use x="343.4375" y="644" xlink:href="#a"/>
  <use x="356.820312" y="644" xlink:href="#f"/>
  <use x="376.757812" y="644" xlink:href="#e"/>
  <use x="396.796875" y="644" xlink:href="#s"/>
  <use x="406.398438" y="644" xlink:href="#c"/>
  <use x="70" y="672" xlink:href="#r"/>
  <use x="82.183594" y="672" xlink:href="#d"/>
  <use x="95.992188" y="672" xlink:href="#c"/>
  <use x="115.226562" y="672" xlink:href="#q"/>
  <use x="154.152344" y="672" xlink:href="#a"/>
  <use x="167.535156" y="672" xlink:href="#p"/>
  <use x="187.46875" y="672" xlink:href="#b"/>
  <use x="216.207031" y="672" xlink:href="#o"/>
  <use x="239.640625" y="672" xlink:href="#c"/>
  <use x="258.878906" y="672" xlink:href="#f"/>
  <use x="278.8125" y="672" xlink:href="#n"/>
  <use x="308.492188" y="672" xlink:href="#m"/>
  <use x="329.015625" y="672" xlink:href="#d"/>
  <use x="342.820312" y="672" xlink:href="#c"/>
  <use x="362.058594" y="672" xlink:href="#l"/>
  <use x="371.65625" y="672" xlink:href="#b"/>
  <use x="390.648438" y="672" xlink:href="#k"/>
  <use x="407.242188" y="672" xlink:href="#a"/>
 </g>
</svg>